HIERARCHY
ROOT Hips
{
	OFFSET 0.00000 0.00000 0.00000
	CHANNELS 6 Xposition Yposition Zposition Zrotation Yrotation Xrotation 
	JOINT LHipJoint
	{
		OFFSET 0 0 0
		CHANNELS 3 Zrotation Yrotation Xrotation
		JOINT LeftHip
		{
			OFFSET 1.86795 -1.59681 0.65681
			CHANNELS 3 Zrotation Yrotation Xrotation
			JOINT LeftKnee
			{
				OFFSET 2.30491 -6.33268 0.00000
				CHANNELS 3 Zrotation Yrotation Xrotation
				JOINT LeftAnkle
				{
					OFFSET 2.46780 -6.78022 0.00000
					CHANNELS 3 Zrotation Yrotation Xrotation
					JOINT LeftToe
					{
						OFFSET 0.07897 -0.21698 1.59652
						CHANNELS 3 Zrotation Yrotation Xrotation
						End Site
						{
							OFFSET 0.00000 -0.00000 0.82310
						}
					}
				}
			}
		}
	}
	JOINT RHipJoint
	{
		OFFSET 0 0 0
		CHANNELS 3 Zrotation Yrotation Xrotation
		JOINT RightHip
		{
			OFFSET -1.93650 -1.59681 0.65681
			CHANNELS 3 Zrotation Yrotation Xrotation
			JOINT RightKnee
			{
				OFFSET -2.29410 -6.30299 0.00000
				CHANNELS 3 Zrotation Yrotation Xrotation
				JOINT RightAnkle
				{
					OFFSET -2.48738 -6.83403 0.00000
					CHANNELS 3 Zrotation Yrotation Xrotation
					JOINT RightToe
					{
						OFFSET -0.08699 -0.23899 1.89395
						CHANNELS 3 Zrotation Yrotation Xrotation
						End Site
						{
							OFFSET -0.00000 -0.00000 0.96904
						}
					}
				}
			}
		}
	}
	JOINT lowerback
	{
		OFFSET 0 0 0
		CHANNELS 3 Zrotation Yrotation Xrotation
		JOINT Chest
		{
			OFFSET 0.03629 1.99740 -0.07548
			CHANNELS 3 Zrotation Yrotation Xrotation
			JOINT Chest2
			{
				OFFSET 0.03970 1.94298 0.17218
				CHANNELS 3 Zrotation Yrotation Xrotation
				JOINT lowerneck
				{
					OFFSET 0 0 0
					CHANNELS 3 Zrotation Yrotation Xrotation
					JOINT Neck
					{
						OFFSET -0.05054 1.79469 0.04241
						CHANNELS 3 Zrotation Yrotation Xrotation
						JOINT Head
						{
							OFFSET 0.05195 1.78475 -0.22133
							CHANNELS 3 Zrotation Yrotation Xrotation
							End Site
							{
								OFFSET 0.02420 1.80711 -0.07950
							}
						}
					}
				}
				JOINT LeftCollar
				{
					OFFSET 0 0 0
					CHANNELS 3 Zrotation Yrotation Xrotation
					JOINT LeftShoulder
					{
						OFFSET 2.92134 1.19850 0.36056
CHANNELS 3 Zrotation Xrotation Yrotation
						JOINT LeftElbow
						{
OFFSET 0 -4.841370 0.000000
CHANNELS 3 Zrotation Xrotation Yrotation
							JOINT LeftWrist
							{
OFFSET 0 -3.245200 -0.000000
CHANNELS 3 Zrotation Xrotation Yrotation
								JOINT lhand
								{
									OFFSET 0 0 0
CHANNELS 3 Zrotation Xrotation Yrotation
									JOINT LFingers
									{
OFFSET 0 -0.521220 0.000000
CHANNELS 3 Zrotation Xrotation Yrotation
										End Site
										{
OFFSET 0 -0.420220 0.000000
										}
									}
								}
								JOINT LThumb
								{
OFFSET 0 0.000000 0.000000
CHANNELS 3 Zrotation Xrotation Yrotation
									End Site
									{
OFFSET 0 -0.426640 0.426640
									}
								}
							}
						}
					}
				}
				JOINT RightCollar
				{
					OFFSET 0 0 0
					CHANNELS 3 Zrotation Yrotation Xrotation
					JOINT RightShoulder
					{
						OFFSET -2.84327 1.20795 0.50191
CHANNELS 3 Zrotation Xrotation Yrotation
						JOINT RightElbow
						{
OFFSET 0 -4.722840 0.000000
CHANNELS 3 Zrotation Xrotation Yrotation
							JOINT RightWrist
							{
OFFSET 0 -3.234590 0.000000
CHANNELS 3 Zrotation Xrotation Yrotation
								JOINT rhand
								{
									OFFSET 0 0 0
CHANNELS 3 Zrotation Xrotation Yrotation
									JOINT RFingers
									{
OFFSET 0 -0.307420 0.000000
CHANNELS 3 Zrotation Xrotation Yrotation
										End Site
										{
OFFSET 0 -0.247850 0.000000
										}
									}
								}
								JOINT RThumb
								{
OFFSET 0 0.000000 0.000000
CHANNELS 3 Zrotation Xrotation Yrotation
									End Site
									{
OFFSET 0 -0.251630 0.251630
									}
								}
							}
						}
					}
				}
			}
		}
	}
}
MOTION
Frames: 5
Frame Time: 0.008333333333333333
12.599700 16.274700 -15.556200 -1.557200 -6.874500 6.899400 0.000000 0.000000 0.000000 -26.595000 -17.796600 -11.217900 1.819500 8.479500 24.180200 0.174400 11.539500 -18.658400 0.265500 3.314600 9.156000 0.000000 0.000000 0.000000 10.339400 14.982600 -21.985700 -5.965700 -14.395000 44.844000 4.293400 -33.832600 -16.555700 -4.212000 -12.437200 37.296800 2.204000 0.105900 2.825900 1.213600 0.292300 -2.579800 -0.002200 0.097600 -4.241200 -6.605100 0.704000 -2.519500 7.276400 0.278600 18.535200 3.440300 0.196800 5.956900 -0.000000 -0.000000 0.000000 14.254500 18.907800 -34.082700 39.821000 -47.963500 18.306200 -33.684700 2.039400 -39.534500 0.000000 0.000000 0.000000 -7.125000 0.000000 0.000000 -72.269300 55.656100 29.250400 -0.000000 -0.000000 0.000000 -12.426100 16.536900 31.671400 -19.753300 -30.344000 -5.406200 4.949500 -21.060900 -20.159000 0.000000 0.000000 0.000000 7.125000 0.000000 -0.000000 21.111100 10.717700 18.126600
12.607980 16.258484 -15.694284 -0.986167 -5.479463 5.389299 0.000000 0.000000 0.000000 -27.451679 -17.500777 -10.388966 1.845421 8.536412 24.355482 0.184298 10.638665 -17.676516 0.222129 3.032952 8.370440 0.000000 0.000000 0.000000 8.931942 15.636194 -24.987700 -7.505500 -15.743078 50.761030 4.917659 -36.134310 -9.152187 -4.847987 -13.207587 40.155917 0.819239 0.004470 6.046334 1.211832 0.132228 -1.734064 0.783502 0.059533 -5.194013 -5.947773 0.272440 -6.569650 6.781780 -0.143934 20.281345 3.208695 0.066402 7.268305 0.000000 0.000000 0.000000 20.426650 18.320145 -45.718516 35.066686 -44.859476 14.860477 -34.653151 1.573073 -35.888108 0.000000 0.000000 0.000000 -7.125000 0.000000 0.000000 -68.457070 53.560427 22.346192 0.000000 0.000000 0.000000 -14.928040 15.937493 33.351912 -20.024752 -30.672127 -5.544011 9.983941 -20.122628 -14.694445 0.000000 0.000000 0.000000 7.125000 0.000000 0.000000 24.795275 15.788093 19.004919
12.619829 16.227388 -15.777272 -1.024635 -3.497223 5.739981 0.000000 0.000000 0.000000 -27.154717 -17.940428 -11.814666 2.016219 8.899728 25.482207 0.286993 9.029066 -17.119972 0.151950 2.510660 6.919203 0.000000 0.000000 0.000000 8.606812 15.460616 -30.389042 -9.056935 -16.844075 56.286619 5.481571 -38.270992 -6.867137 -5.291165 -13.700579 42.058425 0.378440 -0.392239 6.647129 1.044168 -0.434556 -1.779130 0.922602 -0.208623 -5.576438 -5.349930 0.266921 -8.338126 7.470097 -0.291250 20.187784 3.336562 0.131522 7.564926 0.000000 0.000000 0.000000 24.090194 18.069902 -52.303151 28.277821 -39.369962 10.299822 -33.883614 1.482209 -35.098727 0.000000 0.000000 0.000000 -7.125000 0.000000 0.000000 -66.998443 53.275406 20.847615 0.000000 0.000000 0.000000 -17.606685 14.587186 33.918546 -17.715321 -27.791038 -4.415783 14.008540 -18.519689 -10.163281 0.000000 0.000000 0.000000 7.125000 0.000000 0.000000 28.027586 19.781061 19.324429
12.569217 16.120658 -15.760715 -0.813922 -2.275369 5.112597 0.000000 0.000000 0.000000 -27.304803 -18.065175 -12.659311 2.481368 9.803940 28.344219 0.522493 7.408506 -18.328983 0.109873 2.126972 5.857010 0.000000 0.000000 0.000000 9.753166 16.957382 -30.565905 -9.489351 -17.112510 57.767637 2.576952 -27.719489 -4.097603 -1.838048 -8.514232 24.290997 0.028581 0.152088 6.856221 0.359703 0.225812 -1.867523 0.331845 0.117162 -5.794594 -5.470960 -0.625884 -8.456106 8.332772 -1.667347 20.066998 3.523903 -0.451714 7.650623 0.000000 0.000000 0.000000 26.060595 17.827573 -47.603928 22.866158 -33.941829 7.063555 -32.621063 3.414076 -36.031390 0.000000 0.000000 0.000000 -7.125000 0.000000 0.000000 -67.198006 54.052498 22.499248 0.000000 0.000000 0.000000 -21.126899 15.653975 35.941748 -14.419495 -23.330956 -2.992425 16.932700 -11.224087 -3.504238 0.000000 0.000000 0.000000 7.125000 0.000000 0.000000 31.390297 25.572805 17.395740
12.454391 16.095336 -15.720760 -0.542423 0.659431 4.894092 0.000000 0.000000 0.000000 -27.334422 -19.451152 -12.322319 2.633711 10.077019 29.226420 0.591484 6.389803 -18.248646 0.068306 1.686175 4.639166 0.000000 0.000000 0.000000 10.746346 18.930097 -29.858266 -8.546623 -16.506868 54.508450 1.970301 -23.909708 -9.418876 -2.553550 -9.934202 28.764223 -0.958515 0.156346 6.728089 -0.174092 0.112092 -2.095597 0.344013 0.087339 -5.961989 -5.948083 -1.170114 -8.850738 10.000312 -2.663726 20.072490 4.080187 -0.799457 7.824288 0.000000 0.000000 0.000000 29.189651 16.045909 -39.080474 17.733820 -27.814436 4.424652 -34.382088 4.184484 -36.798573 0.000000 0.000000 0.000000 -7.125000 0.000000 0.000000 -69.358097 54.107311 24.049882 0.000000 0.000000 0.000000 -25.784583 16.751528 36.718005 -10.602163 -17.675849 -1.653158 15.646312 -0.822520 -5.673414 0.000000 0.000000 0.000000 7.125000 0.000000 0.000000 30.029921 23.731095 17.933444
